# xmcd CD database file
#
# Track frame offsets:
#	150
#	9610
#	29754
#	51545
#	66513
#	91492
#	120678
#	138246
#	172195
#	215207
#	232238
#	248364
#	269605
#	295959
#	328341
#
# Disc length: 4724 seconds
#
# Revision: 0
# Processed by: cddbd v1.5.2PL0 Copyright (c) Steve Scherf et al.
# Submitted via: CDex 1.51
#
DISCID=fc12720f
DTITLE=Various Artist - Salsa Dance Hits CD2 - The Legendary Fania Recordings
DYEAR=2007
DGENRE=Salsa
TTITLE0=Machito - Guampampiro
TTITLE1=Mongo Santamaria and Justo Betancourt - Cantandole De Amor
TTITLE2=Celia Cruz and Johnny Pacheco - Quimbara
TTITLE3=Hector Rivera - Para Mi Gente
TTITLE4=Joe Cuba - El Pito (I'll Never Go Back To Georgia)
TTITLE5=Junior Gonzalez and Orquesta Harlow - La Cartera
TTITLE6=Andy Harlow - La Cumbiamba
TTITLE7=Alegre All Stars - Manteca
TTITLE8=Hector Lavoe - Bandolera
TTITLE9=Lebron Brothers - Salsa Y Control
TTITLE10=Tipica '73 - Baila Que Baila
TTITLE11=Hector Rivera - Tumbo El Quinto
TTITLE12=Orquesta Novel - Que Viva El Son Montuno
TTITLE13=Ismael Rivera - Las Caras Lindas
TTITLE14=Latin Tempo - La Humanidad
EXTD=YEAR: 2007
EXTT0=
EXTT1=
EXTT2=
EXTT3=
EXTT4=
EXTT5=
EXTT6=
EXTT7=
EXTT8=
EXTT9=
EXTT10=
EXTT11=
EXTT12=
EXTT13=
EXTT14=
PLAYORDER=
